<?xml version="1.0" encoding="utf-8"?>
<!-- Generator: Adobe Illustrator 16.0.0, SVG Export Plug-In . SVG Version: 6.00 Build 0)  -->
<!DOCTYPE svg PUBLIC "-//W3C//DTD SVG 1.1//EN" "http://www.w3.org/Graphics/SVG/1.1/DTD/svg11.dtd">
<svg version="1.1" id="Layer_1" xmlns="http://www.w3.org/2000/svg" xmlns:xlink="http://www.w3.org/1999/xlink" x="0px" y="0px"
	 width="368.954px" height="430.946px" viewBox="0 0 368.954 430.946" enable-background="new 0 0 368.954 430.946"
	 xml:space="preserve">
<g id="_x39_PCq5U_1_">
	<g>
		<g>
			<path fill="#00A6CC" d="M231.133,431.946c-0.667,0-1.333,0-2,0c-3.008-1.697-5.941-4.682-9.035-4.855
				c-9.725-0.545-19.541-0.502-29.26,0.184c-12.047,0.85-23.547,0.385-33.504-7.553c-0.381-0.303-0.857-0.518-1.323-0.678
				c-11.856-4.105-23.651-8.414-35.601-12.23c-9.769-3.119-16.927,0.633-20.31,10.387c-1.663,4.795-2.656,9.824-3.952,14.748
				c-6.999,0-13.998,0-20.997,0c0.129-3.305,0.375-6.607,0.331-9.91c-0.018-1.293-0.687-2.58-1.059-3.869
				c-1.3,0.705-2.987,1.104-3.831,2.168c-2.97,3.746-5.649,7.721-8.439,11.611c-2.666,0-5.333,0-7.999,0
				c4.746-9.098,10.866-17.113,18.606-23.883c4.764-4.168,9.382-8.504,14.202-12.602c9.138-7.771,9.472-11.355,1.649-20.678
				c-0.321-0.383-0.645-0.764-0.971-1.143c-16.072-18.615-30.44-38.354-39.302-61.533c-2.926-7.654-7.998-12.834-14.488-17.705
				c-8.573-6.436-16.565-13.85-23.859-21.722c-6.37-6.874-9.402-15.729-8.666-25.322c1.207-15.71,3.506-31.106,14.847-43.409
				c1.564-1.698,2.836-3.718,3.97-5.743c0.942-1.683,1.906-3.539,2.134-5.407c2.087-17.151,4.024-34.32,5.985-51.486
				c1.508-13.201,2.277-26.511,7.103-39.138c2.839-7.429,4.723-15.257,7.975-22.483c2.611-5.804,6.237-11.277,10.136-16.341
				c4.349-5.649,10.058-10.278,14.216-16.042c10.085-13.979,24.663-22.692,37.65-33.273c1.38-1.124,3.153-2.061,4.881-2.416
				c14.305-2.94,28.531-6.713,42.995-8.338c25.981-2.919,51.563,1.855,76.501,8.378c22.033,5.764,42.41,15.404,57.523,33.894
				c5.387,6.588,12.758,11.533,19.062,17.402c1.773,1.651,3.277,3.762,4.391,5.927c11.705,22.805,21.51,46.375,29.897,70.633
				c3.626,10.484,4.772,20.564,2.729,31.166c-0.979,5.076,0.479,7.82,5.484,9.71c3.869,1.46,8.889,3.628,10.438,6.888
				c13.01,27.36,14.059,60.793-12.192,83.083c-7.573,6.43-12.401,14.396-15.015,24.108c-3.965,14.749-8.729,29.282-13.078,43.931
				c-2.16,7.277-5.061,14.125-10.899,19.264c-2.562,2.256-2.456,4.545-1.342,7.527c2.332,6.246,4.272,12.637,6.797,20.232
				c-1.782-1.641-2.399-2.574-3.257-2.93c-2.373-0.984-5.541-3.092-7.133-2.281c-3.324,1.697-4.045,5.367-2.348,9.107
				c0.887,1.957,1.571,4.004,2.34,6.014c4.668,12.203,9.336,24.404,14.002,36.607c-8.666,0-17.332,0-25.998,0
				c-1.646-8.908-2.696-17.986-5.125-26.678c-2.043-7.309-8.812-9.439-15.037-4.768C257.44,410.655,244.381,421.426,231.133,431.946
				z M178.788,51.904c-7.744-7.033-15.213-13.879-22.752-20.649c-16.024-14.389-37.326-15.761-54.138-2.269
				c-10.989,8.818-21.124,18.812-30.917,28.977c-8.471,8.793-15.132,19.105-17.608,31.353c-1.704,8.43-2.149,17.115-3.871,25.54
				c-2.348,11.495-5.579,22.81-7.937,34.303c-0.469,2.288,1.29,5.034,2.021,7.568c1.915-1.28,3.942-2.423,5.721-3.871
				c3.317-2.698,6.049-6.692,9.803-8.175c13.602-5.375,27.862-9.697,42.493-8.967c16.517,0.824,32.94,3.729,49.372,5.975
				c17.373,2.375,34.529,3.202,51.889-1.077c27.498-6.777,55.358-11.013,83.844-7.561c14.011,1.698,24.709,8.05,30.846,21.27
				c1.139,2.454,3.105,4.696,5.17,6.483c1.216,1.053,3.375,1.018,5.109,1.472c0.336-1.817,1.348-3.823,0.898-5.421
				c-2.982-10.656-6.479-21.17-9.438-31.833C306.545,79.058,275.101,48.349,236.6,23.38c-7.143-4.633-14.656-5.277-22.05-0.686
				c-4.505,2.797-8.897,5.863-12.962,9.26C193.948,38.338,186.583,45.051,178.788,51.904z M51.65,228.053
				c-0.719-0.035-1.438-0.07-2.157-0.104c-0.573,1.848-1.905,3.832-1.602,5.523c3.149,17.574,5.192,35.509,10.274,52.527
				c5.423,18.16,13.622,35.512,20.993,53.055c1.627,3.873,4.515,7.398,7.432,10.512c8.082,8.625,16.609,16.834,24.735,25.422
				c13.71,14.486,29.697,25.508,48.355,32.621c12.361,4.715,25.337,6.195,38.355,7.775c10.998,1.334,21.471,1.307,31.17-5.082
				c4.147-2.73,8.762-4.744,13.068-7.246c20.891-12.139,39.766-26.908,50.842-48.746c19.094-37.639,36.019-76.251,38.584-119.283
				c0.455-7.654-0.832-15.424-1.529-23.121c-0.094-1.037-1.522-2.815-2.192-2.752c-1.239,0.116-2.608,1.142-3.481,2.165
				c-0.803,0.939-1.25,2.335-1.467,3.597c-1.07,6.203-2.438,12.395-2.921,18.65c-1.685,21.852-15.634,31.119-33.266,30.314
				c-14.287-0.65-28.567-1.465-42.854-2.129c-12.162-0.565-21.453-6.139-28.619-15.795c-5.059-6.814-10.185-13.595-15.601-20.123
				c-7.575-9.129-14.06-9.233-20.933,0.379c-5.373,7.515-10.047,15.644-14.098,23.955c-5.013,10.285-12.537,16.863-23.543,19.754
				c-20.725,5.443-41.218,3.297-61.411-2.371c-10.172-2.856-16.917-10.045-20.47-20.211
				C57.034,240.816,54.223,234.476,51.65,228.053z M65.063,185.902c0.068,14.525,3.216,28.079,9.29,40.863
				c4.31,9.071,11.07,15.265,20.767,18.003c7.652,2.161,15.294,3.833,23.443,2.35c11.779-2.145,21.126-6.642,23.896-19.695
				c0.511-2.408,2.242-4.85,4.045-6.633c4.437-4.389,6.414-9.723,6.436-15.686c0.02-5.3-0.615-10.612-1.142-15.901
				c-0.841-8.464-5.093-13.685-13.94-14.871c-5.232-0.702-10.365-2.116-15.564-3.101c-11.797-2.234-23.523-3.809-35.357,0.36
				c-3.98,1.403-8.479,1.824-12.742,1.834c-8.906,0.02-9.148,0.019-9.14,8.98C65.056,183.571,65.055,184.737,65.063,185.902z
				 M264.098,233.945c18.898,1.576,22.427-6.476,26.771-17.342c4.561-11.405,6.559-23.28,4.285-35.554
				c-2.88-15.545-7.843-19.529-21.531-19.081c-6.981,0.229-13.985-0.2-20.961,0.103c-8.244,0.358-16.488,1.007-24.696,1.868
				c-6.524,0.685-9.591,3.478-10.899,9.758c-3.531,16.939,1.67,31.728,11.646,45.201
				C237.827,231.204,250.609,234.854,264.098,233.945z M335.356,267.312c0.541,0.255,1.083,0.511,1.624,0.767
				c0.765-0.531,1.597-0.988,2.285-1.604c18.663-16.614,22.867-37.573,18.147-61.098c-1.287-6.414-4.834-11.45-10.559-14.98
				c-4.418,9.3-7.161,26.691-7.027,39.536c0.09,8.585-0.408,17.208-1.219,25.759C338.237,259.633,336.483,263.443,335.356,267.312z
				 M35.966,287.2c0.085-0.726,0.285-1.361,0.211-1.964c-2.638-21.558-5.276-43.116-8.044-64.657
				c-0.124-0.969-1.36-2.352-2.259-2.509c-0.944-0.165-2.6,0.634-3.086,1.495c-2.201,3.898-4.089,7.975-6.106,11.979
				C6.189,252.364,19.099,275.624,35.966,287.2z M178.015,190.051c2.44,0,4.087,0.087,5.722-0.017
				c5.071-0.323,8.381-3.381,9.381-8.573c0.959-4.98-3.302-5.367-6.166-6.895c-1.731-0.923-3.562-1.759-5.449-2.272
				c-2.998-0.817-4.93,0.269-4.703,3.654C177.104,180.522,177.579,185.085,178.015,190.051z"/>
			<path fill="none" d="M317.122,431.946c-4.666-12.203-9.332-24.404-14-36.607c-0.77-2.01-1.455-4.057-2.342-6.014
				c-1.695-3.74-0.976-7.41,2.35-9.107c1.591-0.811,4.759,1.297,7.132,2.281c0.856,0.355,1.476,1.289,3.257,2.93
				c-2.523-7.598-4.465-13.986-6.797-20.232c-1.114-2.982-1.219-5.271,1.342-7.527c5.84-5.139,8.739-11.986,10.9-19.264
				c4.348-14.648,9.113-29.182,13.078-43.931c2.61-9.711,7.439-17.679,15.014-24.108c26.251-22.289,25.201-55.723,12.193-83.083
				c-1.551-3.26-6.568-5.428-10.438-6.888c-5.007-1.89-6.463-4.634-5.483-9.71c2.041-10.602,0.896-20.681-2.73-31.166
				c-8.389-24.258-18.191-47.828-29.898-70.633c-1.111-2.165-2.615-4.276-4.39-5.927c-6.304-5.869-13.677-10.813-19.062-17.402
				c-15.115-18.49-35.492-28.13-57.524-33.894c-24.937-6.523-50.521-11.297-76.501-8.378c-14.465,1.625-28.689,5.398-42.995,8.338
				c-1.729,0.355-3.501,1.292-4.881,2.416C92.358,24.62,77.78,33.332,67.695,47.312c-4.158,5.764-9.867,10.393-14.216,16.042
				c-3.899,5.063-7.525,10.537-10.136,16.341c-3.252,7.226-5.135,15.055-7.975,22.483c-4.826,12.627-5.595,25.938-7.103,39.138
				c-1.961,17.166-3.898,34.335-5.985,51.486c-0.228,1.868-1.192,3.724-2.134,5.407c-1.134,2.024-2.406,4.045-3.97,5.743
				C4.833,216.254,2.533,231.651,1.327,247.361c-0.736,9.593,2.296,18.448,8.666,25.322c7.294,7.872,15.286,15.286,23.859,21.722
				c6.49,4.871,11.562,10.051,14.488,17.705c8.862,23.18,23.23,42.918,39.302,61.533c0.327,0.377,0.65,0.76,0.971,1.143
				c7.823,9.32,7.489,12.906-1.649,20.678c-4.82,4.098-9.438,8.432-14.202,12.602c-7.74,6.77-13.86,14.785-18.606,23.883
				c-17.991,0-35.982,0-53.978,0C0.172,288.359,0.172,144.772,0.172,1.093c122.866,0,245.743,0,368.782,0
				c0,143.556,0,287.205,0,430.855c-7.51,0-15.172,0-22.834,0c-8.619-14.73-15.86-30.441-29.902-42.072
				c5.111,14.43,10.008,28.25,14.904,42.072C326.454,431.946,321.79,431.946,317.122,431.946z"/>
			<path fill="none" d="M96.15,431.946c1.296-4.924,2.289-9.951,3.952-14.748c3.383-9.754,10.541-13.504,20.309-10.385
				c11.951,3.814,23.744,8.123,35.602,12.229c0.465,0.162,0.943,0.375,1.324,0.68c9.957,7.936,21.455,8.4,33.502,7.553
				c9.72-0.688,19.537-0.73,29.261-0.184c3.093,0.174,6.028,3.156,9.035,4.855c-25.997,0-51.994,0-77.99,0
				c-2.844-1.904-5.489-4.258-8.571-5.621c-6.929-3.064-14.121-5.529-21.113-8.459c-3.832-1.605-7.108-0.916-9.104,2.432
				c-2.162,3.631-3.506,7.744-5.208,11.648C103.482,431.946,99.816,431.946,96.15,431.946z"/>
			<path fill="none" d="M231.133,431.946c13.248-10.52,26.307-21.291,39.83-31.443c6.225-4.674,12.994-2.541,15.037,4.768
				c2.429,8.689,3.479,17.768,5.125,26.678c-3,0-6,0-9,0c-1.08-4.318-1.84-8.75-3.326-12.926c-1.627-4.572-4.379-5.301-8.555-2.568
				c-7.762,5.078-15.416,10.32-23.115,15.494C241.798,431.946,236.466,431.946,231.133,431.946z"/>
			<path fill="#00A6CC" d="M331.122,431.946c-4.896-13.822-9.793-27.643-14.904-42.07c14.042,11.629,21.283,27.342,29.902,42.07
				C341.12,431.946,336.12,431.946,331.122,431.946z"/>
			<path fill="#00A6CC" d="M107.148,431.946c1.701-3.902,3.046-8.018,5.208-11.646c1.995-3.35,5.271-4.037,9.104-2.432
				c6.992,2.93,14.185,5.393,21.113,8.457c3.082,1.365,5.728,3.717,8.571,5.621C136.478,431.946,121.813,431.946,107.148,431.946z"
				/>
			<path fill="#00A6CC" d="M247.131,431.946c7.699-5.174,15.354-10.416,23.115-15.492c4.174-2.732,6.928-2.006,8.555,2.568
				c1.484,4.174,2.246,8.605,3.326,12.924C270.461,431.946,258.795,431.946,247.131,431.946z"/>
			<path fill="none" d="M62.154,431.946c2.79-3.891,5.469-7.863,8.439-11.611c0.844-1.064,2.531-1.463,3.831-2.166
				c0.373,1.289,1.042,2.574,1.059,3.869c0.045,3.301-0.201,6.604-0.331,9.908C70.82,431.946,66.487,431.946,62.154,431.946z"/>
			<path fill="none" d="M178.788,51.904c7.793-6.853,15.16-13.566,22.801-19.951c4.064-3.397,8.457-6.463,12.962-9.26
				c7.394-4.591,14.907-3.947,22.05,0.686c38.501,24.969,69.945,55.678,82.693,101.642c2.959,10.663,6.453,21.177,9.438,31.833
				c0.448,1.598-0.562,3.604-0.898,5.421c-1.734-0.454-3.895-0.418-5.109-1.472c-2.064-1.787-4.031-4.029-5.17-6.483
				c-6.137-13.22-16.835-19.572-30.846-21.27c-28.485-3.452-56.346,0.784-83.844,7.561c-17.357,4.278-34.516,3.451-51.889,1.077
				c-16.432-2.247-32.855-5.151-49.372-5.975c-14.631-0.73-28.892,3.592-42.493,8.967c-3.754,1.483-6.485,5.477-9.803,8.175
				c-1.779,1.447-3.806,2.59-5.721,3.871c-0.731-2.534-2.49-5.28-2.021-7.568c2.358-11.493,5.589-22.808,7.937-34.303
				c1.721-8.425,2.167-17.11,3.871-25.54c2.476-12.248,9.138-22.56,17.608-31.353c9.793-10.165,19.928-20.159,30.917-28.977
				c16.812-13.492,38.113-12.12,54.138,2.269C163.575,38.024,171.043,44.871,178.788,51.904z"/>
			<path fill="none" d="M51.65,228.053c2.573,6.423,5.383,12.763,7.664,19.289c3.552,10.164,10.297,17.354,20.47,20.209
				c20.193,5.67,40.687,7.816,61.412,2.373c11.004-2.891,18.529-9.471,23.543-19.754c4.051-8.312,8.725-16.441,14.096-23.955
				c6.873-9.613,13.359-9.508,20.934-0.379c5.417,6.527,10.542,13.308,15.6,20.121c7.168,9.658,16.459,15.23,28.621,15.795
				c14.287,0.664,28.566,1.479,42.854,2.131c17.632,0.804,31.582-8.465,33.266-30.315c0.482-6.255,1.852-12.448,2.92-18.65
				c0.217-1.262,0.664-2.658,1.467-3.597c0.875-1.023,2.244-2.049,3.482-2.165c0.67-0.062,2.1,1.715,2.193,2.752
				c0.695,7.697,1.984,15.467,1.527,23.121c-2.563,43.032-19.488,81.644-38.582,119.284c-11.078,21.838-29.953,36.607-50.843,48.744
				c-4.307,2.504-8.92,4.518-13.069,7.246c-9.699,6.389-20.172,6.418-31.17,5.082c-13.019-1.578-25.994-3.061-38.354-7.773
				c-18.659-7.115-34.646-18.135-48.355-32.623c-8.126-8.586-16.653-16.795-24.735-25.422c-2.917-3.113-5.805-6.639-7.432-10.512
				c-7.371-17.543-15.57-34.893-20.993-53.053c-5.083-17.021-7.125-34.955-10.274-52.528c-0.303-1.69,1.028-3.677,1.602-5.524
				C50.212,227.983,50.931,228.018,51.65,228.053z M282.149,274.32c-3.999,0.931-8.328,1.328-12.148,2.938
				c-14.223,5.988-28.779,9.156-44.246,6.877c-5.094-0.752-10.188-1.514-15.303-2.086c-19.777-2.217-39.108,1.322-58.487,4.506
				c-14.528,2.386-29.173,3.662-43.4-1.428c-5.571-1.992-10.52-1.793-15.819,0.471c-5.599,2.393-6.22,3.972-2.163,8.432
				c9.073,9.977,17.827,20.293,27.485,29.676c16.002,15.543,33.885,27.842,56.022,33.994c28.456,7.908,52.329,0.668,73.854-18.121
				c14.453-12.619,24.871-28.002,32.332-45.578C282.801,288.047,284.864,282.194,282.149,274.32z"/>
			<path fill="none" d="M65.059,185.902c-0.004-1.165-0.003-2.331-0.004-3.497c-0.008-8.962,0.233-8.961,9.14-8.98
				c4.263-0.01,8.761-0.431,12.742-1.834c11.834-4.169,23.56-2.594,35.356-0.36c5.199,0.985,10.334,2.399,15.565,3.101
				c8.849,1.187,13.099,6.407,13.94,14.871c0.525,5.289,1.16,10.602,1.142,15.901c-0.022,5.963-2,11.297-6.437,15.686
				c-1.803,1.783-3.533,4.225-4.045,6.633c-2.769,13.054-12.115,17.551-23.896,19.695c-8.149,1.483-15.792-0.188-23.443-2.35
				c-9.697-2.738-16.458-8.932-20.767-18.003C68.28,213.981,65.131,200.427,65.059,185.902z M145.679,208.125
				c-1.703-2.155-2.929-5.009-5.065-6.146c-4.951-2.632-10.197-4.98-15.593-6.447c-8.985-2.442-18.118-2.566-26.811,1.56
				c-7.956,3.776-12.146,11.741-10.157,19.321c2.433-1.889,5.153-3.389,7.063-5.591c6.684-7.702,15.453-8.038,24.308-6.663
				c4.787,0.743,9.419,3.071,13.873,5.202C137.454,211.349,141.143,211.597,145.679,208.125z"/>
			<path fill="none" d="M264.098,233.945c-13.488,0.909-26.271-2.741-35.385-15.048c-9.977-13.473-15.178-28.262-11.647-45.201
				c1.31-6.28,4.375-9.074,10.899-9.758c8.208-0.861,16.451-1.509,24.697-1.868c6.975-0.303,13.979,0.127,20.959-0.103
				c13.689-0.449,18.652,3.535,21.531,19.081c2.273,12.274,0.276,24.149-4.283,35.554
				C286.525,227.469,282.997,235.521,264.098,233.945z M236.508,208.189c3.338-2.217,7.021-4.168,10.117-6.81
				c9.603-8.192,19.147-6.65,25.511,4.294c1.791,3.081,4,6.049,8.271,4.243c3.594-1.52,4.524-5.535,2.574-9.886
				c-3.839-8.568-16.736-15.513-26.037-14.31c-8.021,1.039-13.953,5.958-20.117,10.402
				C231.956,199.636,231.913,202.79,236.508,208.189z"/>
			<path fill="none" d="M335.356,267.312c1.127-3.869,2.881-7.679,3.253-11.619c0.81-8.551,1.308-17.174,1.22-25.759
				c-0.135-12.846,2.608-30.236,7.026-39.536c5.726,3.53,9.271,8.566,10.558,14.98c4.721,23.525,0.517,44.484-18.146,61.098
				c-0.689,0.614-1.521,1.073-2.285,1.604C336.439,267.825,335.897,267.568,335.356,267.312z"/>
			<path fill="none" d="M35.966,287.2c-16.867-11.576-29.776-34.836-19.285-55.656c2.017-4.004,3.906-8.08,6.106-11.979
				c0.486-0.862,2.143-1.66,3.086-1.495c0.899,0.158,2.135,1.541,2.259,2.508c2.768,21.541,5.406,43.1,8.044,64.658
				C36.251,285.838,36.051,286.474,35.966,287.2z"/>
			<path fill="none" d="M178.015,190.051c-0.437-4.966-0.91-9.528-1.216-14.103c-0.227-3.386,1.705-4.472,4.703-3.654
				c1.886,0.514,3.717,1.35,5.449,2.272c2.864,1.528,7.125,1.915,6.166,6.895c-1,5.191-4.31,8.25-9.381,8.573
				C182.101,190.138,180.456,190.051,178.015,190.051z"/>
			<path fill="#00A6CC" d="M282.149,274.32c2.713,7.874,0.652,13.728-1.875,19.681c-7.461,17.576-17.878,32.959-32.333,45.578
				c-21.524,18.789-45.397,26.027-73.854,18.121c-22.137-6.152-40.021-18.451-56.021-33.994
				c-9.658-9.383-18.412-19.699-27.485-29.676c-4.057-4.459-3.436-6.039,2.163-8.432c5.299-2.264,10.249-2.463,15.819-0.471
				c14.228,5.09,28.873,3.813,43.399,1.428c19.38-3.184,38.711-6.723,58.488-4.506c5.114,0.572,10.209,1.334,15.303,2.086
				c15.466,2.279,30.022-0.889,44.246-6.877C273.821,275.648,278.151,275.25,282.149,274.32z M115.875,297.676
				c0.857,1.182,1.386,1.945,1.949,2.682c11.457,14.947,26.069,26.611,40.6,38.248c13.566,10.861,29.423,14.045,46.48,11.098
				c30.928-5.342,49.289-26.186,63.527-51.926c1.566-2.832,1.996-6.292,3.055-9.797c-1.576,0-2.125-0.145-2.56,0.021
				c-14.041,5.314-28.526,4.975-43.255,4.357c-15.77-0.66-31.629-0.357-47.402,0.441c-15.566,0.791-31.072,2.783-46.613,4.127
				C126.608,297.364,121.528,297.418,115.875,297.676z"/>
			<path fill="#00A6CC" d="M145.679,208.125c-4.536,3.472-8.228,3.224-12.382,1.235c-4.454-2.131-9.086-4.459-13.873-5.202
				c-8.855-1.375-17.624-1.039-24.308,6.663c-1.911,2.202-4.63,3.702-7.063,5.59c-1.989-7.579,2.202-15.542,10.157-19.32
				c8.693-4.126,17.826-4.002,26.811-1.56c5.396,1.467,10.642,3.815,15.593,6.447C142.75,203.116,143.976,205.971,145.679,208.125z"
				/>
			<path fill="#00A6CC" d="M236.508,208.189c-4.596-5.4-4.553-8.553,0.32-12.066c6.162-4.444,12.095-9.363,20.115-10.402
				c9.303-1.204,22.199,5.741,26.038,14.31c1.95,4.352,1.019,8.366-2.575,9.886c-4.27,1.807-6.479-1.162-8.27-4.243
				c-6.363-10.945-15.909-12.487-25.512-4.294C243.53,204.021,239.846,205.973,236.508,208.189z"/>
			<path fill="none" d="M115.875,297.676c5.652-0.256,10.732-0.312,15.781-0.75c15.541-1.344,31.045-3.336,46.613-4.125
				c15.773-0.799,31.631-1.102,47.403-0.442c14.729,0.617,29.214,0.957,43.254-4.358c0.433-0.164,0.981-0.021,2.56-0.021
				c-1.059,3.505-1.488,6.965-3.055,9.797c-14.238,25.739-32.6,46.583-63.527,51.927c-17.059,2.947-32.916-0.236-46.48-11.1
				c-14.53-11.635-29.143-23.299-40.6-38.247C117.261,299.622,116.733,298.857,115.875,297.676z"/>
		</g>
	</g>
</g>
</svg>
