<?xml version="1.0" encoding="utf-8"?>
<!-- Generator: Adobe Illustrator 16.0.0, SVG Export Plug-In . SVG Version: 6.00 Build 0)  -->
<svg version="1.2" baseProfile="tiny" id="Layer_1" xmlns="http://www.w3.org/2000/svg" xmlns:xlink="http://www.w3.org/1999/xlink"
	 x="0px" y="0px" width="368.954px" height="430.946px" viewBox="0 0 368.954 430.946" xml:space="preserve">
<g id="_x39_PCq5U_1_">
	<g>
		<g>
			<path d="M231.971,431.946c-0.667,0-1.333,0-2,0c-3.007-1.698-5.941-4.682-9.035-4.855c-9.724-0.546-19.541-0.503-29.26,0.183
				c-12.047,0.85-23.546,0.384-33.503-7.552c-0.381-0.304-0.858-0.518-1.324-0.679c-11.857-4.106-23.651-8.414-35.601-12.23
				c-9.768-3.119-16.926,0.632-20.309,10.386c-1.663,4.796-2.656,9.824-3.952,14.748c-6.999,0-13.998,0-20.997,0
				c0.129-3.304,0.375-6.607,0.331-9.909c-0.018-1.294-0.687-2.58-1.059-3.869c-1.3,0.704-2.987,1.102-3.831,2.167
				c-2.97,3.747-5.649,7.722-8.439,11.611c-2.666,0-5.333,0-7.999,0c4.746-9.096,10.866-17.113,18.606-23.883
				c4.764-4.168,9.382-8.502,14.202-12.601c9.138-7.771,9.472-11.356,1.649-20.677c-0.321-0.383-0.645-0.764-0.971-1.143
				c-16.072-18.615-30.44-38.354-39.302-61.533c-2.926-7.654-7.998-12.834-14.488-17.705c-8.573-6.436-16.565-13.85-23.859-21.722
				c-6.37-6.874-9.402-15.729-8.666-25.322c1.207-15.71,3.506-31.106,14.847-43.409c1.564-1.698,2.836-3.718,3.97-5.743
				c0.942-1.683,1.906-3.539,2.134-5.407c2.087-17.151,4.024-34.32,5.985-51.486c1.508-13.201,2.277-26.511,7.103-39.138
				c2.839-7.429,4.723-15.257,7.975-22.483c2.611-5.804,6.237-11.277,10.136-16.341c4.349-5.649,10.058-10.278,14.216-16.042
				c10.085-13.979,24.663-22.692,37.65-33.273c1.38-1.124,3.153-2.061,4.881-2.416c14.305-2.94,28.531-6.713,42.995-8.338
				c25.981-2.919,51.564,1.855,76.501,8.378c22.033,5.764,42.41,15.404,57.524,33.894c5.386,6.588,12.758,11.533,19.062,17.402
				c1.773,1.651,3.278,3.762,4.39,5.927c11.706,22.805,21.511,46.375,29.898,70.633c3.626,10.484,4.772,20.564,2.73,31.166
				c-0.979,5.076,0.478,7.82,5.484,9.71c3.869,1.46,8.888,3.628,10.438,6.888c13.009,27.36,14.058,60.793-12.193,83.083
				c-7.573,6.43-12.402,14.396-15.014,24.108c-3.965,14.75-8.73,29.283-13.078,43.931c-2.161,7.278-5.061,14.124-10.9,19.264
				c-2.561,2.256-2.456,4.545-1.342,7.527c2.332,6.245,4.273,12.636,6.797,20.232c-1.782-1.641-2.399-2.574-3.257-2.93
				c-2.373-0.984-5.541-3.092-7.132-2.28c-3.325,1.696-4.045,5.367-2.349,9.106c0.887,1.957,1.572,4.004,2.341,6.015
				c4.668,12.202,9.335,24.404,14.001,36.607c-8.666,0-17.331,0-25.997,0c-1.647-8.909-2.697-17.986-5.125-26.677
				c-2.043-7.309-8.812-9.441-15.037-4.768C258.278,410.654,245.219,421.427,231.971,431.946z M179.626,51.904
				c-7.744-7.033-15.213-13.879-22.752-20.649c-16.025-14.389-37.326-15.761-54.138-2.269
				c-10.989,8.818-21.124,18.812-30.917,28.977c-8.471,8.793-15.132,19.105-17.608,31.353c-1.704,8.43-2.149,17.115-3.871,25.54
				c-2.348,11.495-5.579,22.81-7.937,34.303c-0.469,2.288,1.29,5.034,2.021,7.568c1.915-1.28,3.942-2.423,5.721-3.871
				c3.317-2.698,6.049-6.692,9.803-8.175c13.602-5.375,27.862-9.697,42.493-8.967c16.517,0.824,32.941,3.729,49.372,5.975
				c17.373,2.375,34.53,3.202,51.889-1.077c27.498-6.777,55.358-11.013,83.843-7.561c14.011,1.698,24.71,8.05,30.846,21.27
				c1.139,2.454,3.105,4.696,5.17,6.483c1.216,1.053,3.375,1.018,5.11,1.472c0.336-1.817,1.347-3.823,0.898-5.421
				c-2.983-10.656-6.479-21.17-9.437-31.833c-12.749-45.964-44.193-76.673-82.694-101.642c-7.143-4.633-14.656-5.277-22.05-0.686
				c-4.505,2.797-8.898,5.863-12.962,9.26C194.786,38.338,187.42,45.051,179.626,51.904z M52.488,228.053
				c-0.719-0.035-1.438-0.07-2.157-0.104c-0.573,1.848-1.905,3.833-1.602,5.524c3.149,17.574,5.192,35.509,10.274,52.528
				c5.423,18.16,13.622,35.511,20.993,53.054c1.627,3.873,4.515,7.398,7.432,10.511c8.082,8.626,16.609,16.835,24.735,25.422
				c13.71,14.488,29.697,25.508,48.355,32.622c12.362,4.714,25.337,6.196,38.355,7.775c10.998,1.335,21.471,1.306,31.17-5.082
				c4.148-2.73,8.762-4.743,13.069-7.246c20.89-12.138,39.765-26.908,50.842-48.746c19.093-37.639,36.018-76.251,38.583-119.283
				c0.456-7.654-0.832-15.424-1.528-23.121c-0.094-1.037-1.523-2.815-2.193-2.752c-1.239,0.116-2.608,1.142-3.482,2.165
				c-0.803,0.939-1.25,2.335-1.467,3.597c-1.069,6.202-2.438,12.395-2.92,18.65c-1.685,21.851-15.634,31.119-33.266,30.315
				c-14.287-0.651-28.567-1.466-42.854-2.13c-12.162-0.565-21.453-6.138-28.62-15.795c-5.058-6.814-10.184-13.594-15.6-20.122
				c-7.575-9.129-14.06-9.234-20.933,0.379c-5.372,7.514-10.046,15.643-14.097,23.955c-5.013,10.284-12.538,16.863-23.543,19.754
				c-20.725,5.443-41.218,3.297-61.411-2.372c-10.172-2.856-16.917-10.045-20.47-20.21
				C57.872,240.816,55.061,234.476,52.488,228.053z M65.901,185.902c0.068,14.525,3.216,28.079,9.29,40.863
				c4.31,9.072,11.07,15.265,20.767,18.003c7.652,2.161,15.294,3.833,23.443,2.35c11.779-2.145,21.126-6.642,23.896-19.696
				c0.511-2.408,2.243-4.849,4.045-6.633c4.437-4.388,6.414-9.722,6.436-15.685c0.02-5.3-0.616-10.612-1.142-15.901
				c-0.841-8.464-5.092-13.685-13.94-14.871c-5.232-0.702-10.366-2.116-15.565-3.101c-11.797-2.234-23.523-3.809-35.357,0.36
				c-3.98,1.403-8.479,1.824-12.742,1.834c-8.906,0.02-9.148,0.019-9.14,8.98C65.894,183.571,65.893,184.737,65.901,185.902z
				 M264.936,233.945c18.898,1.576,22.427-6.476,26.772-17.342c4.56-11.405,6.558-23.28,4.284-35.554
				c-2.879-15.545-7.842-19.529-21.531-19.081c-6.981,0.229-13.985-0.2-20.96,0.103c-8.245,0.358-16.489,1.007-24.697,1.868
				c-6.524,0.685-9.59,3.478-10.899,9.758c-3.531,16.939,1.67,31.728,11.647,45.201
				C238.665,231.204,251.447,234.854,264.936,233.945z M336.194,267.312c0.541,0.255,1.083,0.511,1.624,0.767
				c0.765-0.531,1.596-0.989,2.285-1.604c18.663-16.614,22.867-37.573,18.147-61.098c-1.287-6.414-4.833-11.45-10.558-14.98
				c-4.418,9.3-7.161,26.691-7.027,39.536c0.089,8.585-0.409,17.208-1.219,25.759C339.074,259.634,337.321,263.443,336.194,267.312z
				 M36.804,287.2c0.085-0.726,0.285-1.362,0.211-1.964c-2.638-21.558-5.276-43.117-8.044-64.658
				c-0.124-0.968-1.36-2.351-2.259-2.508c-0.944-0.165-2.6,0.633-3.086,1.495c-2.201,3.899-4.089,7.975-6.106,11.979
				C7.027,252.364,19.937,275.624,36.804,287.2z M178.853,190.051c2.44,0,4.087,0.087,5.722-0.017
				c5.071-0.323,8.38-3.381,9.381-8.573c0.959-4.98-3.302-5.367-6.167-6.895c-1.731-0.923-3.562-1.759-5.448-2.272
				c-2.999-0.817-4.931,0.269-4.704,3.654C177.942,180.522,178.416,185.085,178.853,190.051z"/>
			<path fill-rule="evenodd" fill="none" d="M317.96,431.946c-4.666-12.203-9.333-24.405-14.001-36.607
				c-0.769-2.01-1.454-4.058-2.341-6.015c-1.696-3.739-0.976-7.41,2.349-9.106c1.591-0.812,4.759,1.296,7.132,2.28
				c0.857,0.355,1.475,1.289,3.257,2.93c-2.523-7.597-4.465-13.987-6.797-20.232c-1.114-2.982-1.219-5.271,1.342-7.527
				c5.84-5.14,8.739-11.986,10.9-19.264c4.348-14.648,9.113-29.182,13.078-43.931c2.611-9.711,7.44-17.678,15.014-24.108
				c26.251-22.29,25.202-55.723,12.193-83.083c-1.55-3.26-6.568-5.428-10.438-6.888c-5.007-1.89-6.463-4.634-5.484-9.71
				c2.042-10.602,0.896-20.681-2.73-31.166c-8.388-24.258-18.192-47.828-29.898-70.633c-1.111-2.165-2.616-4.276-4.39-5.927
				c-6.304-5.869-13.676-10.813-19.062-17.402c-15.114-18.49-35.491-28.13-57.524-33.894c-24.937-6.523-50.521-11.297-76.501-8.378
				c-14.464,1.625-28.69,5.398-42.995,8.338c-1.729,0.355-3.501,1.292-4.881,2.416c-12.987,10.581-27.565,19.293-37.65,33.273
				c-4.158,5.764-9.867,10.393-14.216,16.042c-3.899,5.063-7.525,10.537-10.136,16.341c-3.252,7.226-5.135,15.055-7.975,22.483
				c-4.826,12.627-5.595,25.937-7.103,39.138c-1.961,17.166-3.898,34.335-5.985,51.486c-0.228,1.868-1.192,3.724-2.134,5.407
				c-1.134,2.024-2.406,4.045-3.97,5.743C5.671,216.255,3.371,231.651,2.165,247.361c-0.736,9.593,2.296,18.448,8.666,25.322
				c7.294,7.872,15.286,15.286,23.859,21.722c6.49,4.871,11.562,10.051,14.488,17.705c8.862,23.179,23.23,42.918,39.302,61.533
				c0.327,0.378,0.65,0.76,0.971,1.143c7.823,9.32,7.489,12.905-1.649,20.677c-4.82,4.099-9.438,8.433-14.202,12.601
				c-7.74,6.77-13.86,14.787-18.606,23.883c-17.991,0-35.982,0-53.978,0C1.01,288.359,1.01,144.772,1.01,1.093
				c122.865,0,245.742,0,368.781,0c0,143.556,0,287.204,0,430.854c-7.509,0-15.171,0-22.834,0
				c-8.619-14.729-15.86-30.441-29.902-42.071c5.112,14.429,10.008,28.249,14.904,42.071
				C327.292,431.946,322.627,431.946,317.96,431.946z"/>
			<path fill-rule="evenodd" fill="none" d="M96.988,431.946c1.296-4.924,2.289-9.952,3.952-14.748
				c3.383-9.754,10.541-13.505,20.309-10.386c11.95,3.816,23.744,8.124,35.601,12.23c0.465,0.161,0.943,0.375,1.324,0.679
				c9.957,7.936,21.456,8.401,33.503,7.552c9.719-0.686,19.536-0.729,29.26-0.183c3.093,0.174,6.028,3.157,9.035,4.855
				c-25.997,0-51.994,0-77.99,0c-2.844-1.904-5.489-4.257-8.572-5.621c-6.928-3.064-14.12-5.528-21.112-8.458
				c-3.832-1.605-7.109-0.917-9.104,2.432c-2.162,3.63-3.506,7.744-5.208,11.647C104.32,431.946,100.654,431.946,96.988,431.946z"/>
			<path fill-rule="evenodd" fill="none" d="M231.971,431.946c13.248-10.52,26.307-21.292,39.83-31.444
				c6.225-4.673,12.994-2.541,15.037,4.768c2.429,8.69,3.479,17.768,5.125,26.677c-3,0-5.999,0-8.999,0
				c-1.08-4.318-1.841-8.75-3.327-12.925c-1.627-4.573-4.379-5.301-8.555-2.568c-7.761,5.077-15.416,10.319-23.115,15.493
				C242.636,431.946,237.304,431.946,231.971,431.946z"/>
			<path fill-rule="evenodd" d="M331.959,431.946c-4.896-13.822-9.792-27.643-14.904-42.071
				c14.042,11.63,21.283,27.343,29.902,42.071C341.957,431.946,336.958,431.946,331.959,431.946z"/>
			<path fill-rule="evenodd" d="M107.986,431.946c1.701-3.903,3.046-8.018,5.208-11.647c1.995-3.349,5.271-4.037,9.104-2.432
				c6.992,2.93,14.184,5.394,21.112,8.458c3.083,1.364,5.728,3.717,8.572,5.621C137.316,431.946,122.651,431.946,107.986,431.946z"
				/>
			<path fill-rule="evenodd" d="M247.969,431.946c7.699-5.174,15.354-10.416,23.115-15.493c4.175-2.732,6.928-2.005,8.555,2.568
				c1.485,4.175,2.247,8.606,3.327,12.925C271.3,431.946,259.634,431.946,247.969,431.946z"/>
			<path fill-rule="evenodd" fill="none" d="M62.992,431.946c2.79-3.89,5.469-7.864,8.439-11.611
				c0.844-1.065,2.531-1.463,3.831-2.167c0.373,1.289,1.042,2.575,1.059,3.869c0.045,3.302-0.201,6.605-0.331,9.909
				C71.658,431.946,67.325,431.946,62.992,431.946z"/>
			<path fill-rule="evenodd" fill="none" d="M179.626,51.904c7.793-6.853,15.16-13.566,22.8-19.951
				c4.064-3.397,8.458-6.463,12.962-9.26c7.394-4.591,14.907-3.947,22.05,0.686c38.501,24.969,69.945,55.678,82.694,101.642
				c2.958,10.663,6.453,21.177,9.437,31.833c0.448,1.598-0.562,3.604-0.898,5.421c-1.735-0.454-3.895-0.418-5.11-1.472
				c-2.064-1.787-4.031-4.029-5.17-6.483c-6.136-13.22-16.835-19.572-30.846-21.27c-28.485-3.452-56.346,0.784-83.843,7.561
				c-17.358,4.278-34.516,3.451-51.889,1.077c-16.431-2.247-32.855-5.151-49.372-5.975c-14.631-0.73-28.892,3.592-42.493,8.967
				c-3.754,1.483-6.485,5.477-9.803,8.175c-1.779,1.447-3.806,2.59-5.721,3.871c-0.731-2.534-2.49-5.28-2.021-7.568
				c2.358-11.493,5.589-22.808,7.937-34.303c1.721-8.425,2.167-17.11,3.871-25.54c2.476-12.248,9.138-22.56,17.608-31.353
				c9.793-10.165,19.928-20.159,30.917-28.977c16.812-13.492,38.113-12.12,54.138,2.269
				C164.413,38.024,171.882,44.871,179.626,51.904z"/>
			<path fill-rule="evenodd" fill="none" d="M52.488,228.053c2.573,6.423,5.383,12.763,7.664,19.289
				c3.552,10.165,10.297,17.354,20.47,20.21c20.193,5.669,40.687,7.815,61.411,2.372c11.005-2.891,18.53-9.47,23.543-19.754
				c4.051-8.312,8.725-16.441,14.097-23.955c6.873-9.613,13.358-9.508,20.933-0.379c5.417,6.528,10.542,13.308,15.6,20.122
				c7.167,9.657,16.458,15.23,28.62,15.795c14.288,0.664,28.567,1.479,42.854,2.13c17.632,0.804,31.582-8.464,33.266-30.315
				c0.482-6.255,1.851-12.448,2.92-18.65c0.217-1.262,0.664-2.658,1.467-3.597c0.874-1.023,2.243-2.049,3.482-2.165
				c0.67-0.062,2.1,1.715,2.193,2.752c0.696,7.697,1.984,15.467,1.528,23.121c-2.564,43.032-19.489,81.644-38.583,119.283
				c-11.078,21.838-29.953,36.608-50.842,48.746c-4.307,2.503-8.92,4.516-13.069,7.246c-9.699,6.388-20.172,6.417-31.17,5.082
				c-13.019-1.579-25.994-3.062-38.355-7.775c-18.659-7.114-34.645-18.134-48.355-32.622c-8.126-8.587-16.653-16.796-24.735-25.422
				c-2.917-3.113-5.805-6.639-7.432-10.511c-7.371-17.543-15.57-34.894-20.993-53.054c-5.083-17.02-7.125-34.955-10.274-52.528
				c-0.303-1.691,1.028-3.676,1.602-5.524C51.05,227.983,51.769,228.018,52.488,228.053z M282.987,274.32
				c-3.999,0.931-8.329,1.328-12.149,2.938c-14.222,5.989-28.779,9.157-44.246,6.877c-5.093-0.751-10.188-1.513-15.303-2.086
				c-19.777-2.217-39.108,1.322-58.487,4.506c-14.528,2.386-29.173,3.663-43.4-1.427c-5.571-1.993-10.52-1.794-15.819,0.47
				c-5.599,2.392-6.22,3.972-2.163,8.432c9.073,9.976,17.827,20.293,27.485,29.675c16.001,15.544,33.885,27.842,56.022,33.994
				c28.456,7.908,52.33,0.669,73.854-18.121c14.454-12.618,24.872-28.001,32.333-45.577
				C283.639,288.047,285.701,282.194,282.987,274.32z"/>
			<path fill-rule="evenodd" fill="none" d="M65.897,185.902c-0.004-1.165-0.003-2.331-0.004-3.497
				c-0.008-8.962,0.233-8.961,9.14-8.98c4.263-0.01,8.761-0.431,12.742-1.834c11.834-4.169,23.56-2.594,35.357-0.36
				c5.199,0.985,10.333,2.399,15.565,3.101c8.849,1.187,13.099,6.407,13.94,14.871c0.525,5.289,1.161,10.602,1.142,15.901
				c-0.022,5.963-2,11.297-6.436,15.685c-1.803,1.784-3.534,4.225-4.045,6.633c-2.769,13.054-12.116,17.551-23.896,19.696
				c-8.149,1.483-15.792-0.188-23.443-2.35c-9.697-2.738-16.458-8.931-20.767-18.003C69.118,213.981,65.969,200.427,65.897,185.902z
				 M146.517,208.125c-1.703-2.155-2.928-5.009-5.066-6.146c-4.951-2.632-10.196-4.98-15.592-6.447
				c-8.986-2.442-18.118-2.566-26.811,1.56c-7.956,3.776-12.146,11.741-10.157,19.32c2.433-1.888,5.153-3.388,7.063-5.59
				c6.684-7.702,15.453-8.038,24.308-6.663c4.787,0.743,9.419,3.071,13.873,5.202C138.291,211.349,141.981,211.597,146.517,208.125z
				"/>
			<path fill-rule="evenodd" fill="none" d="M264.936,233.945c-13.488,0.909-26.271-2.741-35.385-15.048
				c-9.977-13.473-15.178-28.262-11.647-45.201c1.309-6.28,4.375-9.074,10.899-9.758c8.208-0.861,16.452-1.509,24.697-1.868
				c6.975-0.303,13.979,0.127,20.96-0.103c13.689-0.449,18.652,3.535,21.531,19.081c2.273,12.274,0.276,24.149-4.284,35.554
				C287.363,227.469,283.834,235.521,264.936,233.945z M237.346,208.189c3.338-2.217,7.021-4.168,10.117-6.81
				c9.603-8.192,19.148-6.65,25.511,4.294c1.791,3.081,4,6.049,8.27,4.243c3.594-1.52,4.525-5.535,2.575-9.886
				c-3.839-8.568-16.736-15.513-26.038-14.31c-8.021,1.039-13.953,5.958-20.116,10.402
				C232.793,199.636,232.75,202.79,237.346,208.189z"/>
			<path fill-rule="evenodd" fill="none" d="M336.194,267.312c1.127-3.869,2.88-7.679,3.253-11.619
				c0.81-8.551,1.308-17.174,1.219-25.759c-0.134-12.845,2.609-30.236,7.027-39.536c5.725,3.53,9.271,8.566,10.558,14.98
				c4.72,23.525,0.516,44.484-18.147,61.098c-0.689,0.615-1.521,1.073-2.285,1.604C337.277,267.824,336.735,267.568,336.194,267.312
				z"/>
			<path fill-rule="evenodd" fill="none" d="M36.804,287.2c-16.867-11.577-29.776-34.836-19.285-55.657
				c2.017-4.004,3.906-8.079,6.106-11.979c0.486-0.862,2.143-1.66,3.086-1.495c0.899,0.158,2.135,1.541,2.259,2.508
				c2.768,21.541,5.406,43.1,8.044,64.658C37.089,285.838,36.889,286.474,36.804,287.2z"/>
			<path fill-rule="evenodd" fill="none" d="M178.853,190.051c-0.437-4.966-0.91-9.528-1.216-14.103
				c-0.227-3.386,1.705-4.472,4.704-3.654c1.885,0.514,3.716,1.35,5.448,2.272c2.865,1.528,7.126,1.915,6.167,6.895
				c-1,5.191-4.31,8.25-9.381,8.573C182.939,190.138,181.293,190.051,178.853,190.051z"/>
			<path fill-rule="evenodd" d="M282.987,274.32c2.713,7.874,0.652,13.727-1.875,19.681c-7.461,17.576-17.878,32.958-32.333,45.577
				c-21.524,18.79-45.398,26.028-73.854,18.121c-22.137-6.152-40.021-18.45-56.022-33.994c-9.658-9.382-18.412-19.699-27.485-29.675
				c-4.057-4.459-3.436-6.04,2.163-8.432c5.299-2.264,10.249-2.463,15.819-0.47c14.228,5.089,28.873,3.813,43.4,1.427
				c19.379-3.184,38.71-6.723,58.487-4.506c5.115,0.573,10.21,1.335,15.303,2.086c15.466,2.279,30.023-0.889,44.246-6.877
				C274.658,275.648,278.989,275.251,282.987,274.32z M116.714,297.676c0.857,1.182,1.385,1.946,1.949,2.682
				c11.456,14.948,26.069,26.612,40.599,38.247c13.566,10.863,29.423,14.046,46.48,11.099c30.928-5.343,49.29-26.186,63.528-51.926
				c1.566-2.832,1.996-6.292,3.054-9.797c-1.576,0-2.125-0.144-2.559,0.021c-14.041,5.315-28.526,4.975-43.254,4.358
				c-15.771-0.66-31.629-0.357-47.403,0.442c-15.567,0.79-31.072,2.782-46.614,4.126
				C127.446,297.364,122.366,297.419,116.714,297.676z"/>
			<path fill-rule="evenodd" d="M146.517,208.125c-4.536,3.472-8.227,3.224-12.382,1.235c-4.454-2.131-9.086-4.459-13.873-5.202
				c-8.855-1.375-17.624-1.039-24.308,6.663c-1.911,2.202-4.63,3.702-7.063,5.59c-1.989-7.579,2.202-15.543,10.157-19.32
				c8.693-4.126,17.825-4.002,26.811-1.56c5.396,1.467,10.641,3.815,15.592,6.447C143.589,203.116,144.814,205.971,146.517,208.125z
				"/>
			<path fill-rule="evenodd" d="M237.346,208.189c-4.595-5.4-4.552-8.553,0.32-12.066c6.163-4.444,12.095-9.363,20.116-10.402
				c9.302-1.204,22.199,5.741,26.038,14.31c1.95,4.352,1.019,8.366-2.575,9.886c-4.27,1.807-6.479-1.162-8.27-4.243
				c-6.363-10.945-15.909-12.487-25.511-4.294C244.367,204.021,240.684,205.973,237.346,208.189z"/>
			<path fill-rule="evenodd" fill="none" d="M116.714,297.676c5.652-0.256,10.732-0.312,15.78-0.749
				c15.542-1.344,31.046-3.337,46.614-4.126c15.773-0.799,31.631-1.102,47.403-0.442c14.729,0.617,29.214,0.957,43.254-4.358
				c0.433-0.164,0.982-0.021,2.559-0.021c-1.058,3.505-1.487,6.965-3.054,9.797c-14.238,25.74-32.6,46.583-63.528,51.926
				c-17.058,2.947-32.915-0.236-46.48-11.099c-14.53-11.635-29.143-23.299-40.599-38.247
				C118.099,299.622,117.571,298.857,116.714,297.676z"/>
		</g>
	</g>
</g>
</svg>
